<mxfile host="app.diagrams.net" modified="2022-12-14T23:18:27.453Z" agent="5.0 (Windows NT 10.0; Win64; x64) AppleWebKit/537.36 (KHTML, like Gecko) Chrome/108.0.0.0 Safari/537.36" version="20.6.1" etag="Syn-8pGblb1gEyCILUmD" type="github">
  <diagram id="Wz0BLV9kqxflayofB-bM" name="Page-1">
    <mxGraphModel dx="1422" dy="705" grid="0" gridSize="10" guides="1" tooltips="1" connect="1" arrows="1" fold="1" page="1" pageScale="1" pageWidth="850" pageHeight="1100" math="0" shadow="0">
      <root>
        <mxCell id="0" />
        <mxCell id="1" parent="0" />
        <mxCell id="Oz3bMMm-HM0JG1XkP9M_-21" value="" style="rounded=1;whiteSpace=wrap;html=1;fillColor=#f5f5f5;fontColor=#333333;strokeColor=#666666;" vertex="1" parent="1">
          <mxGeometry x="75" y="57" width="633" height="113" as="geometry" />
        </mxCell>
        <mxCell id="Oz3bMMm-HM0JG1XkP9M_-5" value="" style="group" vertex="1" connectable="0" parent="1">
          <mxGeometry x="491" y="90" width="155" height="34" as="geometry" />
        </mxCell>
        <mxCell id="Oz3bMMm-HM0JG1XkP9M_-3" value="" style="shape=mxgraph.signs.transportation.truck_5;html=1;pointerEvents=1;fillColor=#000000;strokeColor=none;verticalLabelPosition=bottom;verticalAlign=top;align=center;" vertex="1" parent="Oz3bMMm-HM0JG1XkP9M_-5">
          <mxGeometry x="54.705882352941174" y="3.4" width="100.29411764705881" height="30.599999999999998" as="geometry" />
        </mxCell>
        <mxCell id="Oz3bMMm-HM0JG1XkP9M_-2" value="" style="shape=mxgraph.signs.transportation.truck_5;html=1;pointerEvents=1;fillColor=#000000;strokeColor=none;verticalLabelPosition=bottom;verticalAlign=top;align=center;" vertex="1" parent="Oz3bMMm-HM0JG1XkP9M_-5">
          <mxGeometry x="2.026143790849673" y="3.4" width="100.29411764705881" height="30.599999999999998" as="geometry" />
        </mxCell>
        <mxCell id="Oz3bMMm-HM0JG1XkP9M_-8" value="" style="shape=mxgraph.signs.transportation.truck_4;html=1;pointerEvents=1;fillColor=#000000;strokeColor=none;verticalLabelPosition=bottom;verticalAlign=top;align=center;" vertex="1" parent="1">
          <mxGeometry x="161" y="91.5" width="99" height="33" as="geometry" />
        </mxCell>
        <mxCell id="Oz3bMMm-HM0JG1XkP9M_-9" value="" style="shape=mxgraph.signs.transportation.truck_5;html=1;pointerEvents=1;fillColor=#000000;strokeColor=none;verticalLabelPosition=bottom;verticalAlign=top;align=center;" vertex="1" parent="1">
          <mxGeometry x="328" y="91.5" width="101" height="32.5" as="geometry" />
        </mxCell>
        <mxCell id="Oz3bMMm-HM0JG1XkP9M_-18" value="Single Tractor-Semi Trailer" style="text;html=1;strokeColor=none;fillColor=none;align=center;verticalAlign=middle;whiteSpace=wrap;rounded=0;" vertex="1" parent="1">
          <mxGeometry x="168" y="124.5" width="87" height="30" as="geometry" />
        </mxCell>
        <mxCell id="Oz3bMMm-HM0JG1XkP9M_-19" value="&quot;Western&quot; Double&amp;nbsp;" style="text;html=1;strokeColor=none;fillColor=none;align=center;verticalAlign=middle;whiteSpace=wrap;rounded=0;" vertex="1" parent="1">
          <mxGeometry x="331" y="124.5" width="106" height="30" as="geometry" />
        </mxCell>
        <mxCell id="Oz3bMMm-HM0JG1XkP9M_-20" value="Triple Trailer Combination&amp;nbsp;" style="text;html=1;strokeColor=none;fillColor=none;align=center;verticalAlign=middle;whiteSpace=wrap;rounded=0;" vertex="1" parent="1">
          <mxGeometry x="541" y="124.5" width="60" height="30" as="geometry" />
        </mxCell>
      </root>
    </mxGraphModel>
  </diagram>
</mxfile>
